<svg width="24" height="24" viewBox="0 0 24 24" fill="none" 
  xmlns="http://www.w3.org/2000/svg">
  <path fill-rule="evenodd" clip-rule="evenodd" d="M12 23.7L15.0868 20H20C21.1046 20 22 19.1046 22 18V6C22 4.89543 21.1046 4 20 4H4C2.89543 4 2 4.89543 2 6V18C2 19.1046 2.89543 20 4 20H9L12 23.7ZM14 18L12 20.4L10 18H4V6H20V18H14Z" fill="black"/>
  <path fill-rule="evenodd" clip-rule="evenodd" d="M7 15V13H14V15H7Z" fill="black"/>
  <path fill-rule="evenodd" clip-rule="evenodd" d="M7 11V9H16V11H7Z" fill="black"/>
</svg>
